<?xml version="1.0" encoding="UTF-8"?>
<!DOCTYPE svg PUBLIC "-//W3C//DTD SVG 1.1//EN" "http://www.w3.org/Graphics/SVG/1.1/DTD/svg11.dtd">
<svg xmlns="http://www.w3.org/2000/svg" version="1.1" width="1066px" height="477px" style="shape-rendering:geometricPrecision; text-rendering:geometricPrecision; image-rendering:optimizeQuality; fill-rule:evenodd; clip-rule:evenodd" xmlns:xlink="http://www.w3.org/1999/xlink">
<g><path style="opacity:0.985" fill="#000000" d="M 79.5,77.5 C 114.406,77.1706 149.24,77.5039 184,78.5C 184.796,82.7548 184.629,86.9215 183.5,91C 173.658,91.4334 164.325,93.7668 155.5,98C 153.383,99.7309 151.883,101.898 151,104.5C 149.848,135.454 149.348,166.454 149.5,197.5C 149.348,228.546 149.848,259.546 151,290.5C 152.902,295.4 156.402,298.567 161.5,300C 168.715,301.914 176.049,303.247 183.5,304C 184.833,308.333 184.833,312.667 183.5,317C 148.833,317.667 114.167,317.667 79.5,317C 78.5333,312.599 78.2,308.099 78.5,303.5C 88.7222,303.682 98.3888,301.515 107.5,297C 109.43,294.742 110.93,292.242 112,289.5C 113.152,258.88 113.652,228.213 113.5,197.5C 113.652,166.787 113.152,136.12 112,105.5C 110.444,100.124 106.944,96.6239 101.5,95C 93.9659,92.996 86.2992,91.8293 78.5,91.5C 78.2256,86.737 78.559,82.0704 79.5,77.5 Z"/></g>
<g><path style="opacity:0.976" fill="#000000" d="M 555.5,114.5 C 559.03,113.989 562.196,114.656 565,116.5C 565.173,137.406 565.673,158.24 566.5,179C 567.167,179.667 567.833,179.667 568.5,179C 587.919,160.146 610.586,154.813 636.5,163C 653.522,170.509 664.356,183.342 669,201.5C 676.68,231.008 673.68,259.342 660,286.5C 639.386,317.037 611.22,327.204 575.5,317C 572.5,315.5 569.5,314 566.5,312.5C 565.334,331.491 565.167,350.491 566,369.5C 567.378,374.208 570.212,377.708 574.5,380C 580.985,382.192 587.652,383.526 594.5,384C 595.467,388.401 595.8,392.901 595.5,397.5C 567.167,397.5 538.833,397.5 510.5,397.5C 510.334,393.154 510.501,388.821 511,384.5C 524.551,383.948 531.884,376.948 533,363.5C 533.991,287.11 533.658,210.776 532,134.5C 512.569,131.355 496.236,137.355 483,152.5C 478.978,158.843 479.811,164.343 485.5,169C 490.365,170.619 495.032,172.619 499.5,175C 505.882,181.672 507.049,189.172 503,197.5C 492.632,207.124 482.632,206.791 473,196.5C 467.277,178.715 455.111,171.215 436.5,174C 423.035,177.757 417.202,186.59 419,200.5C 423.393,208.879 430.226,214.379 439.5,217C 454.123,221.208 468.456,226.208 482.5,232C 505.21,245.11 512.377,264.277 504,289.5C 493.035,311.246 475.201,321.579 450.5,320.5C 436.855,320.09 423.521,317.757 410.5,313.5C 407.515,313.993 404.848,315.16 402.5,317C 398.459,317.827 394.459,317.66 390.5,316.5C 389.348,299.211 389.181,281.877 390,264.5C 390.5,264 391,263.5 391.5,263C 396.222,262.223 400.889,262.39 405.5,263.5C 408.372,279.439 416.372,291.939 429.5,301C 441.859,307.481 454.526,308.147 467.5,303C 481.05,293.69 483.884,281.857 476,267.5C 473.106,264.639 469.939,262.139 466.5,260C 451.398,253.743 436.064,248.077 420.5,243C 392.642,230.774 384.808,210.607 397,182.5C 408.313,166.758 423.813,158.758 443.5,158.5C 449.487,159.514 455.487,160.014 461.5,160C 473.457,140.334 490.791,128.001 513.5,123C 527.494,119.435 541.494,116.601 555.5,114.5 Z M 592.5,182.5 C 609.03,180.35 621.53,186.35 630,200.5C 636.995,214.14 640.162,228.64 639.5,244C 640.545,264.193 634.545,281.86 621.5,297C 607.056,308.029 591.722,309.362 575.5,301C 571.123,296.957 567.956,292.124 566,286.5C 565.333,257.5 565.333,228.5 566,199.5C 573.397,191.397 582.231,185.73 592.5,182.5 Z"/></g>
<g><path style="opacity:0.982" fill="#000000" d="M 249.5,159.5 C 251.5,159.5 253.5,159.5 255.5,159.5C 255.169,167.528 255.502,175.528 256.5,183.5C 264.177,175.653 272.843,169.153 282.5,164C 298.979,157.737 315.312,158.071 331.5,165C 342.293,171.401 348.46,180.901 350,193.5C 350.333,224.833 350.667,256.167 351,287.5C 351.566,294.154 354.732,298.987 360.5,302C 364.095,302.584 367.595,303.418 371,304.5C 371.667,308.167 371.667,311.833 371,315.5C 359.225,316.823 347.225,317.489 335,317.5C 323.167,317.333 311.333,317.167 299.5,317C 298.533,312.599 298.2,308.099 298.5,303.5C 309.663,304.354 316.163,299.354 318,288.5C 318.667,260.167 318.667,231.833 318,203.5C 314.115,186.794 303.615,179.96 286.5,183C 273.747,186.963 263.58,194.463 256,205.5C 255.333,232.833 255.333,260.167 256,287.5C 256.566,294.154 259.732,298.987 265.5,302C 269.095,302.584 272.595,303.418 276,304.5C 276.767,308.558 276.6,312.558 275.5,316.5C 251.84,317.666 228.174,317.833 204.5,317C 203.533,312.599 203.2,308.099 203.5,303.5C 212.496,304.263 218.662,300.597 222,292.5C 223.137,276.051 223.637,259.551 223.5,243C 223.637,226.449 223.137,209.949 222,193.5C 218.639,185.988 212.806,181.655 204.5,180.5C 203.341,176.878 203.175,173.211 204,169.5C 205.491,167.996 207.324,167.163 209.5,167C 223.05,164.922 236.384,162.422 249.5,159.5 Z"/></g>
<g><path style="opacity:0.972" fill="#000000" d="M 754.5,159.5 C 806.597,156.101 833.43,180.434 835,232.5C 834.5,233 834,233.5 833.5,234C 797.502,234.5 761.502,234.667 725.5,234.5C 724.956,255.385 732.29,272.885 747.5,287C 778.058,303.236 803.225,297.069 823,268.5C 823.804,267.196 824.971,266.529 826.5,266.5C 830.107,267.637 833.44,269.304 836.5,271.5C 837.614,272.723 837.781,274.056 837,275.5C 813.88,316.219 779.713,329.719 734.5,316C 709.199,304.266 695.032,284.433 692,256.5C 687.223,226.418 695.056,200.251 715.5,178C 726.783,168.079 739.783,161.913 754.5,159.5 Z M 757.5,173.5 C 776.667,171.524 789.5,179.524 796,197.5C 797.904,203.748 798.904,210.081 799,216.5C 774.908,217.494 750.741,217.828 726.5,217.5C 727.087,195.57 737.42,180.903 757.5,173.5 Z"/></g>
<g><path style="opacity:0.976" fill="#000000" d="M 894.5,159.5 C 896.792,159.244 898.959,159.577 901,160.5C 901.02,172.989 901.686,185.322 903,197.5C 909.014,187.15 916.18,177.65 924.5,169C 937.232,159.248 951.232,156.915 966.5,162C 981.635,170.102 987.801,182.602 985,199.5C 980.051,210.219 971.884,213.719 960.5,210C 958.04,208.542 955.873,206.709 954,204.5C 952.036,198.311 949.703,192.311 947,186.5C 939.802,181.205 932.635,181.371 925.5,187C 913.31,198.871 906.476,213.371 905,230.5C 904.333,248.833 904.333,267.167 905,285.5C 905.592,294.757 910.425,300.257 919.5,302C 924.745,302.633 929.912,303.467 935,304.5C 935.796,308.755 935.629,312.921 934.5,317C 906.5,317.667 878.5,317.667 850.5,317C 849.533,312.599 849.2,308.099 849.5,303.5C 856.241,303.689 862.407,302.022 868,298.5C 869,296.833 870,295.167 871,293.5C 872.14,275.883 872.64,258.217 872.5,240.5C 872.333,224.167 872.167,207.833 872,191.5C 870.9,187.778 868.734,184.944 865.5,183C 860.413,180.581 855.079,179.081 849.5,178.5C 848.508,174.217 848.174,169.884 848.5,165.5C 864.017,163.853 879.35,161.853 894.5,159.5 Z"/></g>
</svg>
