<?xml version="1.0" encoding="UTF-8"?>
<!DOCTYPE svg PUBLIC "-//W3C//DTD SVG 1.1//EN" "http://www.w3.org/Graphics/SVG/1.1/DTD/svg11.dtd">
<svg xmlns="http://www.w3.org/2000/svg" version="1.1" width="512px" height="512px" style="shape-rendering:geometricPrecision; text-rendering:geometricPrecision; image-rendering:optimizeQuality; fill-rule:evenodd; clip-rule:evenodd" xmlns:xlink="http://www.w3.org/1999/xlink">
<g><path style="opacity:1" fill="#414042" d="M 254.5,-0.5 C 255.167,-0.5 255.833,-0.5 256.5,-0.5C 290.14,66.7802 323.807,134.114 357.5,201.5C 357.167,201.833 356.833,202.167 356.5,202.5C 322.644,190.437 288.644,178.77 254.5,167.5C 221.301,179.066 188.134,190.733 155,202.5C 154.5,202.167 154,201.833 153.5,201.5C 187.193,134.114 220.86,66.7802 254.5,-0.5 Z"/></g>
<g><path style="opacity:1" fill="#414042" d="M 272.5,511.5 C 261.167,511.5 249.833,511.5 238.5,511.5C 175.134,500.973 132.968,465.306 112,404.5C 97.6281,346.645 111.128,296.478 152.5,254C 199.551,213.325 252.551,203.325 311.5,224C 365.024,247.545 395.857,288.378 404,346.5C 407.972,408.722 384.138,456.888 332.5,491C 313.633,501.566 293.633,508.399 272.5,511.5 Z M 203.5,281.5 C 213.083,281.182 222.583,281.515 232,282.5C 246.744,312.988 261.744,343.321 277,373.5C 277.5,342.835 277.667,312.168 277.5,281.5C 287.5,281.5 297.5,281.5 307.5,281.5C 307.5,337.167 307.5,392.833 307.5,448.5C 298.143,448.832 288.81,448.498 279.5,447.5C 264.333,416.5 249.167,385.5 234,354.5C 233.5,384.832 233.333,415.165 233.5,445.5C 223.5,445.5 213.5,445.5 203.5,445.5C 203.5,390.833 203.5,336.167 203.5,281.5 Z"/></g>
</svg>
